<?xml version="1.0" encoding="utf-8"?>
<!-- Generator: Adobe Illustrator 24.1.1, SVG Export Plug-In . SVG Version: 6.00 Build 0)  -->
<svg version="1.1" id="_x31_0" xmlns="http://www.w3.org/2000/svg" xmlns:xlink="http://www.w3.org/1999/xlink" x="0px" y="0px"
	 viewBox="0 0 512 512" style="enable-background:new 0 0 512 512;" xml:space="preserve">
<style type="text/css">
	.st0{fill:#374149;}
</style>
<g>
	<path class="st0" d="M512,481.439V14.119H0v467.32c0.078,9.23,7.523,16.442,16.602,16.442h478.875
		C504.629,497.881,512,490.514,512,481.439z M39.871,63.146c0-6.05,4.89-11.015,11.015-11.015c6.055,0,11.02,4.965,11.02,11.015
		c0,6.129-4.965,11.02-11.02,11.02C44.762,74.166,39.871,69.275,39.871,63.146z M80.602,63.146c0-6.05,4.886-11.015,10.938-11.015
		c6.129,0,11.015,4.965,11.015,11.015c0,6.129-4.886,11.02-11.015,11.02C85.488,74.166,80.602,69.275,80.602,63.146z
		 M136.922,70.752V55.236c0-2.87,2.325-5.195,5.195-5.195h313.719c2.867,0,5.274,2.325,5.274,5.195v15.516
		c0,2.867-2.406,5.199-5.274,5.199H142.117C139.246,75.951,136.922,73.619,136.922,70.752z M15.516,481.439V105.194h480.968v376.246
		l-1.007,0.926H16.602l-0.778-0.309L15.516,481.439z"/>
	<polygon class="st0" points="211.082,269.498 57.649,269.498 57.176,269.498 57.176,269.498 57.019,269.498 57.019,292.615 
		211.082,292.615 	"/>
	<rect x="57.019" y="154.146" class="st0" width="193.703" height="23.118"/>
	<rect x="57.019" y="211.862" class="st0" width="193.703" height="23.039"/>
	<rect x="57.019" y="327.213" class="st0" width="193.703" height="23.122"/>
	<rect x="57.019" y="384.936" class="st0" width="154.063" height="23.034"/>
	<polygon class="st0" points="352.965,269.162 352.894,269.358 352.813,269.111 346.246,288.119 344.047,294.318 344.102,294.318 
		344.047,294.478 361.348,294.478 356.606,280.385 	"/>
	<path class="st0" d="M417.203,282.299c-0.543-1.238-1.477-2.329-2.641-3.024c-1.086-0.777-2.637-1.164-4.496-1.164
		c-1.942,0-3.414,0.387-4.578,1.164c-1.164,0.695-2.015,1.786-2.562,3.024c-0.617,1.32-1.008,2.87-1.16,4.652
		c-0.234,1.785-0.313,3.726-0.313,5.742c0,2.098,0.078,4.035,0.313,5.742c0.152,1.785,0.543,3.335,1.16,4.652
		c0.547,1.32,1.398,2.406,2.562,3.183c1.164,0.696,2.637,1.086,4.578,1.086c1.859,0,3.41-0.39,4.496-1.086
		c1.164-0.777,2.098-1.863,2.641-3.183c0.621-1.317,1.086-2.867,1.238-4.652c0.234-1.707,0.312-3.645,0.312-5.742
		c0-2.016-0.078-3.958-0.312-5.742C418.289,285.17,417.824,283.619,417.203,282.299z"/>
	<path class="st0" d="M458.55,151.662H295.446h-0.496l0,0h-0.165v264.066H458.55V151.662z M413.477,317.596
		c-1.938,0.777-4.266,1.164-7.059,1.164c-2.558,0-4.886-0.387-7.058-1.164c-2.094-0.778-3.878-1.86-5.351-3.41
		c-0.391-0.394-0.703-0.828-1.035-1.254c-0.387-0.496-0.742-1.024-1.058-1.574c-0.27-0.469-0.559-0.926-0.778-1.438
		c-0.699-1.554-1.242-3.262-1.551-5.121c-0.386-1.786-0.621-3.723-0.699-5.821c-0.078-2.019-0.156-4.113-0.156-6.285
		c0-2.168,0.078-4.266,0.156-6.282c0.078-2.015,0.313-3.953,0.699-5.742c0.309-1.859,0.852-3.57,1.551-5.117
		c0.218-0.516,0.508-0.969,0.778-1.438c0.316-0.554,0.671-1.082,1.058-1.578c0.332-0.426,0.644-0.863,1.035-1.254
		c1.473-1.55,3.258-2.637,5.351-3.414c2.094-0.778,4.422-1.161,6.981-1.161c2.641,0,4.89,0.309,6.906,1.086
		c1.48,0.594,2.89,1.602,4.246,2.824c0.363,0.383,0.778,0.683,1.102,1.129v-0.141c0.051,0.055,0.11,0.086,0.16,0.141v-23.191h12.723
		v69.66h-12.414v-2.711l0.118-1.992c-0.035,0.043-0.078,0.07-0.118,0.11v-0.215C417.278,315.346,415.418,316.744,413.477,317.596z
		 M369.106,318.217l-4.114-12.336h-24.746l-4.188,12.336h-10.664l-3.515-0.05l25.273-69.61h10.703l18.946,52.023l6.367,17.637
		H369.106z"/>
</g>
</svg>
